<?xml version="1.0" standalone="no"?><!DOCTYPE svg PUBLIC "-//W3C//DTD SVG 1.1//EN" "http://www.w3.org/Graphics/SVG/1.1/DTD/svg11.dtd"><svg width="200" height="200" viewBox="0 0 200 200" version="1.1" xmlns="http://www.w3.org/2000/svg" xmlns:xlink="http://www.w3.org/1999/xlink"><defs><style type="text/css"><![CDATA[

]]></style></defs><g class="transform-group"><g transform="scale(0.1953125, 0.1953125)"><path d="M509.952 65.536q92.16 0 174.08 35.328t142.336 96.256 95.744 142.336 35.328 173.568q0 93.184-35.328 174.592t-95.744 142.336-142.336 95.744-174.08 34.816q-93.184 0-174.592-34.816t-142.336-95.744-95.744-142.336-34.816-174.592q0-92.16 34.816-173.568t95.744-142.336 142.336-96.256 174.592-35.328zM506.88 188.416q-66.56 0-124.928 25.088t-101.888 68.608-68.608 101.888-25.088 124.928q0 51.2 14.336 95.744t40.96 83.456l444.416-443.392q-38.912-26.624-83.968-41.472t-95.232-14.848zM506.88 829.44q65.536 0 123.904-25.088t101.888-68.608 68.608-101.888 25.088-124.928q0-95.232-50.176-174.08l-443.392 443.392q38.912 24.576 81.92 37.888t92.16 13.312z" fill="#272636"></path></g></g></svg>