<?xml version="1.0" standalone="no"?><!DOCTYPE svg PUBLIC "-//W3C//DTD SVG 1.1//EN" "http://www.w3.org/Graphics/SVG/1.1/DTD/svg11.dtd"><svg width="200" height="200" viewBox="0 0 200 200" version="1.1" xmlns="http://www.w3.org/2000/svg" xmlns:xlink="http://www.w3.org/1999/xlink"><defs><style type="text/css"><![CDATA[

]]></style></defs><g class="transform-group"><g transform="scale(0.1953125, 0.1953125)"><path d="M762.618433 619.247606 545.093211 619.247606 545.093211 501.461993l227.045039-1.762133c13.104459-4.247744 21.900799-16.343223 21.900799-30.095435 0-17.33583-14.098089-31.43392-31.420617-31.43392L545.093211 438.170504l0-71.078849 220.238007-218.113623c1.205455-2.591011 2.709715-7.410783 3.012613-12.592806 0.571005-8.449439-2.260483-16.598027-7.894807-23.01518-10.091846-11.372002-33.165354-12.577456-44.974307-2.00261L514.364349 309.690318 301.50745 100.735285c-9.639544-8.391111-34.341133-7.381108-43.679825 3.237741-9.188266 10.363022-10.483772 25.816992-3.193739 37.625946l3.222391 5.180999 223.915769 218.581274 0 72.810283-227.077785 1.626034c-13.07376 4.233418-21.930475 16.297175-21.930475 30.019711 0 13.721513 8.856715 25.755594 21.930475 29.987988l5.211698 1.657756 221.866087 0 0 117.785613-227.13816 1.654686c-13.07376 4.158716-21.8701 16.240893-21.8701 29.946033 0 13.735839 8.79634 25.816992 21.930475 30.093389l5.061272 1.627057 222.016513 0 0.11768 221.412762 1.569752 3.012613c4.214998 13.043061 16.264429 21.869077 29.971615 21.869077s25.75764-8.826016 30.004361-21.900799l1.657756-5.149277L545.093211 682.56877l227.045039-1.746784c13.104459-4.279467 21.900799-16.35755 21.900799-30.094412C794.03905 633.405047 779.94096 619.247606 762.618433 619.247606z" fill="#272636"></path></g></g></svg>