<?xml version="1.0" standalone="no"?><!DOCTYPE svg PUBLIC "-//W3C//DTD SVG 1.1//EN" "http://www.w3.org/Graphics/SVG/1.1/DTD/svg11.dtd"><svg width="200" height="200" viewBox="0 0 200 200" version="1.1" xmlns="http://www.w3.org/2000/svg" xmlns:xlink="http://www.w3.org/1999/xlink"><defs><style type="text/css"><![CDATA[

]]></style></defs><g class="transform-group"><g transform="scale(0.1953125, 0.1953125)"><path d="M513.68385 80.202647c-239.632729 0-433.882851 194.406688-433.882851 434.239985 0 239.823064 194.250122 434.252265 433.882851 434.252265 239.631706 0 433.926854-194.429201 433.926854-434.252265C947.610704 274.609335 753.315556 80.202647 513.68385 80.202647zM785.134239 388.580063c-0.044002 0.044002-0.134053 0.090051-0.179079 0.134053l-99.332333 103.685477-19.188015 19.188015-157.302629 157.25658c-0.223081 0.24457-0.268106 0.580215-0.535189 0.803295-8.076956 8.076956-21.196765 8.076956-29.272697 0l-43.464931-43.48642-19.188015-19.189038-87.531566-91.7701-3.346211 3.302209-18.563798 16.867156c-0.044002 0.046049-0.090051 0.135076-0.134053 0.179079-8.121981 8.055466-21.240767 7.988951-29.272697-0.13303-8.032954-8.123005-7.987928-21.24179 0.13303-29.296233l18.71934-17.046235 17.582447-17.425881c0.11154-0.11154 0.156566-0.268106 0.245593-0.379647 0.134053-0.110517 0.289596-0.156566 0.401136-0.267083l1.048889-1.026376 0.200568 0.200568c8.121981-6.670933 20.058848-6.492878 27.668153 1.092891 0.045025 0.066515 0.089028 0.156566 0.13303 0.201591l101.989859 106.228393 19.188015 19.188015 28.693506 28.760021 143.333476-143.332453 19.189038-19.189038 99.513458-103.863533c8.074909-8.055466 21.195741-8.055466 29.271674 0.022513S793.211195 380.503107 785.134239 388.580063z" fill="#272636"></path></g></g></svg>