<?xml version="1.0" standalone="no"?><!DOCTYPE svg PUBLIC "-//W3C//DTD SVG 1.1//EN" "http://www.w3.org/Graphics/SVG/1.1/DTD/svg11.dtd"><svg width="200" height="200" viewBox="0 0 200 200" version="1.1" xmlns="http://www.w3.org/2000/svg" xmlns:xlink="http://www.w3.org/1999/xlink"><defs><style type="text/css"><![CDATA[

]]></style></defs><g class="transform-group"><g transform="scale(0.1953125, 0.1953125)"><path d="M848.043522 188.796924l-672.087045 0c-47.055712 0-85.35397 38.268582-85.35397 85.35397l0 475.698213c0 47.055712 38.298258 85.35397 85.35397 85.35397l672.087045 0c47.055712 0 85.35397-38.298258 85.35397-85.35397l0-229.640144 0-9.633405L933.397493 274.150894C933.397493 227.064482 895.099235 188.796924 848.043522 188.796924zM878.414227 745.722112c0 19.030425-15.467273 34.527374-34.497699 34.527374L180.083471 780.249487c-19.030425 0-34.527374-15.496949-34.527374-34.527374L145.556097 278.277888c0-19.030425 15.496949-34.497699 34.527374-34.497699l663.83408 0c19.030425 0 34.497699 15.467273 34.497699 34.497699l0 232.475725 0 9.455349L878.41525 745.722112zM302.844399 344.899214c0-9.886161-8.045233-17.901719-17.931395-17.901719l-55.487755 0c-9.886161 0-17.931395 8.015557-17.931395 17.901719l0 55.398728c-0.029676 4.779863 1.811252 9.262968 5.16565 12.647041 3.413749 3.413749 7.92653 5.284353 12.765745 5.284353l55.487755 0c9.886161 0 17.931395-8.015557 17.931395-17.901719L302.844399 344.899214zM302.844399 486.721267c0-9.886161-8.045233-17.901719-17.931395-17.901719l-55.487755 0c-9.886161 0-17.931395 8.015557-17.931395 17.901719l0 55.428404c-0.029676 4.750187 1.811252 9.233292 5.16565 12.617365 3.384074 3.413749 7.92653 5.284353 12.765745 5.284353l55.487755 0c9.886161 0 17.931395-8.015557 17.931395-17.872043L302.844399 486.721267zM284.913005 610.670254l-55.487755 0c-9.886161 0-17.931395 8.015557-17.931395 17.901719l0 55.398728c-0.029676 4.779863 1.811252 9.262968 5.195326 12.647041 3.384074 3.413749 7.896854 5.284353 12.736069 5.284353l55.487755 0c9.886161 0 17.931395-8.015557 17.931395-17.901719l0-55.428404C302.844399 618.685811 294.799166 610.670254 284.913005 610.670254zM784.777617 419.714154 355.630626 419.714154c-15.170514 0-27.491121 12.320607-27.491121 27.491121 0 15.170514 12.320607 27.491121 27.491121 27.491121L784.777617 474.696396c15.170514 0 27.491121-12.320607 27.491121-27.491121C812.268738 432.03476 799.948131 419.714154 784.777617 419.714154zM784.777617 559.25014 355.630626 559.25014c-15.170514 0-27.491121 12.320607-27.491121 27.491121 0 15.170514 12.320607 27.491121 27.491121 27.491121L784.777617 614.232382c15.170514 0 27.491121-12.320607 27.491121-27.491121C812.268738 571.570747 799.948131 559.25014 784.777617 559.25014z" fill="#272636"></path></g></g></svg>